<svg width="87" height="26" viewBox="0 0 87 26" fill="none" xmlns="http://www.w3.org/2000/svg">
<g clip-path="url(#clip0_48737_59659)">
<path d="M12 0.915771V6.92162H5.952V12.9758H12V19.03H8.976C4.01867 19.03 0 14.9751 0 9.97289C0 4.97137 4.01867 0.915771 8.976 0.915771H12ZM12 6.92162H15C19.9707 6.92162 24 10.9873 24 16.0029C24 21.0179 19.9707 25.0842 15 25.0842H12V19.03H18.048V12.9758H12V6.92162Z" fill="white"/>
<path d="M39.1281 13.604L41.0721 13.988C40.7001 16.004 39.0801 17.18 37.0161 17.18C34.6281 17.18 32.7441 15.344 32.7441 12.98C32.7441 10.628 34.6281 8.78003 37.0161 8.78003C38.9961 8.78003 40.6761 9.95603 41.0601 11.864L39.1161 12.32C38.8641 11.156 38.0481 10.592 37.0161 10.592C35.7441 10.592 34.7241 11.612 34.7241 12.98C34.7241 14.348 35.7441 15.38 37.0161 15.38C38.0361 15.38 38.8521 14.804 39.1281 13.604ZM52.9198 17H50.8078L50.2438 15.536H46.8598L46.2958 17H44.1718L47.5318 8.96003H49.5598L52.9198 17ZM49.5838 13.832L48.5518 11.192L47.5318 13.832H49.5838ZM59.5667 8.78003C61.3187 8.78003 62.5907 9.64403 62.8907 11.108L60.9467 11.504C60.8027 10.748 60.1787 10.376 59.5427 10.376C58.8827 10.376 58.4627 10.736 58.4627 11.192C58.4627 11.516 58.6067 11.756 59.1107 11.864L60.7787 12.236C62.1707 12.548 62.9867 13.304 62.9867 14.576C62.9867 16.292 61.4627 17.18 59.6747 17.18C57.8627 17.18 56.3747 16.316 56.1587 14.744L58.1987 14.348C58.4027 15.176 58.9787 15.536 59.7827 15.536C60.5267 15.536 60.9707 15.2 60.9707 14.708C60.9707 14.348 60.8027 14.12 60.2267 14L58.5467 13.64C57.3947 13.376 56.3867 12.776 56.3867 11.312C56.3867 9.75203 57.6827 8.78003 59.5667 8.78003ZM74.5006 8.96003V17H72.5326V13.82H69.1486V17H67.1686V8.96003H69.1486V12.092H72.5326V8.96003H74.5006ZM83.411 14.48V17H81.395V14.504L78.287 8.96003H80.447L82.427 12.488L84.383 8.96003H86.591L83.411 14.48Z" fill="white"/>
</g>
<defs>
<clipPath id="clip0_48737_59659">
<rect width="87" height="26" fill="white"/>
</clipPath>
</defs>
</svg>
